Coordinates
version=1
nRows=11
nColumns=40
inDegrees=yes

Units are S.I. units (second, meters, Newtons, ...)
If the header above contains a line with 'inDegrees', this indicates whether rotational values are in degrees (yes) or radians (no).

endheader
time	pelvis_tilt	pelvis_list	pelvis_rotation	pelvis_tx	pelvis_ty	pelvis_tz	hip_flexion_r	hip_adduction_r	hip_rotation_r	knee_angle_r	knee_angle_r_beta	ankle_angle_r	subtalar_angle_r	mtp_angle_r	hip_flexion_l	hip_adduction_l	hip_rotation_l	knee_angle_l	knee_angle_l_beta	ankle_angle_l	subtalar_angle_l	mtp_angle_l	lumbar_extension	lumbar_bending	lumbar_rotation	arm_flex_r	arm_add_r	arm_rot_r	elbow_flex_r	pro_sup_r	wrist_flex_r	wrist_dev_r	arm_flex_l	arm_add_l	arm_rot_l	elbow_flex_l	pro_sup_l	wrist_flex_l	wrist_dev_l
      3.90833333	    -18.18985973	      4.91008976	      7.22073626	     -0.23834241	      1.03564961	      0.02825814	     51.13596850	    -14.45401650	     -4.01632190	     49.06048479	      0.85626699	    -14.40761822	    -17.84916899	      0.00000000	    106.13309302	     -1.09651615	      4.69776731	    118.72786293	      2.07219212	     -4.29345244	    -12.19506768	      0.00000000	    -37.29616469	     -6.28071900	     -5.63293084	     86.42162010	     -3.10741223	    -58.39637190	     15.72438046	      0.67883877	      0.00000000	      0.00000000	     89.07384675	      1.88969717	     16.50933923	     12.31787486	     89.40322181	      0.00000000	      0.00000000
      3.91666667	    -18.72036636	      5.10052546	      7.42819539	     -0.23943652	      1.03495177	      0.02736630	     51.89864997	    -14.89302845	     -3.75836846	     50.75549542	      0.88585051	    -14.04435861	    -18.04130431	      0.00000000	    107.04689897	     -0.80992876	      3.96815558	    117.42802243	      2.04950563	     -4.40462669	    -13.17584718	      0.00000000	    -36.90457219	     -6.48900470	     -5.66712087	     83.09140867	    -15.20884958	     48.62030587	     18.83345903	     89.22154438	      0.00000000	      0.00000000	     89.15368408	      2.29105708	     16.62776543	     12.35299478	     89.40955796	      0.00000000	      0.00000000
      3.92500000	    -19.17069586	      5.25616590	      7.69112426	     -0.24037658	      1.03470730	      0.02727592	     52.69799105	    -15.20067729	     -3.29101796	     52.70214311	      0.91982592	    -13.74190890	    -18.63706738	      0.00000000	    107.55495671	     -0.54508709	      3.37221875	    115.91708176	      2.02313474	     -4.57938183	    -13.49428021	      0.00000000	    -36.57306641	     -6.61301263	     -5.95684623	     83.04046113	    -15.27881508	     48.22268629	     18.96173560	     89.22173869	      0.00000000	      0.00000000	     89.19832257	      2.32202852	     16.84523244	     12.41068762	     89.40970858	      0.00000000	      0.00000000
      3.93333333	    -19.67300063	      5.43072508	      7.98339692	     -0.24142990	      1.03438699	      0.02715555	     53.73515976	    -15.52671942	     -2.68368339	     54.84219566	      0.95717688	    -13.52135042	    -18.99420453	      0.00000000	    107.87622396	     -0.22961026	      2.79882399	    114.22251078	      1.99355889	     -4.61878919	    -13.62153967	      0.00000000	    -36.19550319	     -6.75520917	     -6.30750849	     83.00641079	    -15.31255667	     47.95379443	     19.04500543	     89.22135568	      0.00000000	      0.00000000	     89.23416028	      2.35459180	     16.74802019	     12.42713540	     89.40570916	      0.00000000	      0.00000000
      3.94166667	    -19.98437448	      5.43031004	      8.24498812	     -0.24249152	      1.03408889	      0.02702735	     54.72490567	    -15.74307083	     -2.23353124	     57.18872745	      0.99813159	    -13.39874301	    -19.27334642	      0.00000000	    107.93836257	      0.06442391	      2.30506558	    112.29383463	      1.95989714	     -5.05150949	    -14.01051131	      0.00000000	    -35.95970113	     -6.68059047	     -6.50981338	     83.08748060	    -15.36772192	     48.15228898	     19.07452264	     89.22230359	      0.00000000	      0.00000000	     89.30734256	      2.37815226	     16.78391612	     12.52709774	     89.40928771	      0.00000000	      0.00000000
      3.95000000	    -20.43001067	      5.43201604	      8.48072719	     -0.24368437	      1.03345002	      0.02697880	     56.03846311	    -15.91823661	     -1.59728738	     59.73459368	      1.04256534	    -13.28933581	    -19.40891708	      0.00000000	    107.87490707	      0.30802656	      1.82107372	    110.33371691	      1.92568664	     -5.08646688	    -15.02589161	      0.00000000	    -35.56335550	     -6.66207662	     -6.68478315	     83.07217502	    -15.39050297	     47.74494381	     19.16346452	     89.22512919	      0.00000000	      0.00000000	     89.34870716	      2.39237311	     17.06661988	     12.55879638	     89.41005305	      0.00000000	      0.00000000
      3.95833333	    -20.54189340	      5.13486490	      8.85245213	     -0.24445793	      1.03313570	      0.02692280	     56.95396234	    -16.00128740	     -1.44717802	     62.34604192	      1.08814371	    -13.50297719	    -20.30476770	      0.00000000	    107.35654691	      0.69176748	      1.71534600	    108.23513827	      1.88905953	     -4.97515533	    -14.75927493	      0.00000000	    -35.44942041	     -6.24491011	     -6.78735842	     82.73218732	    -15.26893665	     44.53332671	     19.63029760	     89.23347712	      0.00000000	      0.00000000	     89.40764531	      2.45957207	     16.77014628	     12.59716588	     89.40718060	      0.00000000	      0.00000000
      3.96666667	    -21.13985807	      5.40729664	      8.90202519	     -0.24589546	      1.03194115	      0.02678626	     58.85429610	    -16.25703077	     -0.32337675	     65.27795638	      1.13931527	    -13.17930647	    -19.47448555	      0.00000000	    107.04883455	      0.80235376	      1.10696453	    105.94293674	      1.84905307	     -5.08623258	    -15.17357137	      0.00000000	    -34.88780199	     -6.55593864	     -6.96999824	     83.14339166	    -15.43172289	     47.59816939	     19.25234308	     89.22639692	      0.00000000	      0.00000000	     89.40826704	      2.41207356	     17.45671674	     12.59882675	     89.41034005	      0.00000000	      0.00000000
      3.97500000	    -21.40604409	      5.14874857	      9.12489448	     -0.24697455	      1.03106981	      0.02674620	     60.26132279	    -16.30171759	      0.02528819	     68.16351380	      1.18967775	    -13.31457002	    -19.46093239	      0.00000000	    106.37011022	      1.16371199	      1.07898466	    103.59425168	      1.80806078	     -4.88584071	    -14.93901256	      0.00000000	    -34.56307195	     -6.23733559	     -6.97753228	     83.29618843	    -15.47179157	     48.19724289	     19.16964590	     89.22419258	      0.00000000	      0.00000000	     89.44065242	      2.43798369	     17.27681740	     12.61421885	     89.41152655	      0.00000000	      0.00000000
      3.98333333	    -21.81627326	      4.99370636	      9.25854374	     -0.24819952	      1.02983748	      0.02675248	     61.99601295	    -16.36785261	      0.54438860	     71.13868218	      1.24160423	    -13.36082216	    -19.39652000	      0.00000000	    105.68619986	      1.39038304	      0.97655372	    101.18483340	      1.76600850	     -4.94030988	    -15.25837292	      0.00000000	    -34.08669498	     -6.08823727	     -6.96538276	     83.26679251	    -15.47180306	     47.58974701	     19.28884959	     89.22732070	      0.00000000	      0.00000000	     89.44666946	      2.42418890	     17.76628886	     12.60433674	     89.41207074	      0.00000000	      0.00000000
      3.99166667	    -21.87029774	      4.78018277	      9.24517659	     -0.24887043	      1.02880865	      0.02675402	     63.34709048	    -16.29305773	      0.96938571	     74.12475238	      1.29372099	    -13.23518465	    -19.34583614	      0.00000000	    104.50698046	      1.14861921	      0.86761164	     98.70086153	      1.72265501	     -4.79614940	    -14.44492378	      0.00000000	    -33.91584076	     -5.85797119	     -6.79622452	     83.35228813	    -15.49384982	     47.69933287	     19.28249356	     89.22622045	      0.00000000	      0.00000000	     89.44664954	      2.43117295	     17.77518276	     12.61587250	     89.41301707	      0.00000000	      0.00000000
